<!DOCTYPE svg PUBLIC "-//W3C//DTD SVG 20010904//EN" "http://www.w3.org/TR/2001/REC-SVG-20010904/DTD/svg10.dtd">
<svg version="1.0" xmlns="http://www.w3.org/2000/svg" width="2732px" height="1366px" viewBox="0 0 27320 13660" preserveAspectRatio="xMidYMid meet"><g fill="#e52c31" stroke="none">
 <path d="M0 10584 l0 -3075 22 3 c18 2 24 12 29 41 3 21 16 51 28 67 11 16 21 32 21 35 0 4 16 41 36 83 39 83 50 108 84 192 13 30 43 98 67 150 55 116 59 125 74 175 6 22 17 47 25 55 21 25 104 255 104 290 0 10 7 25 15 33 7 8 17 28 21 43 9 38 91 252 110 286 7 14 14 33 14 41 0 9 11 38 25 65 14 28 25 57 25 65 0 8 8 35 18 59 11 24 22 61 26 83 4 22 11 45 16 50 4 6 10 27 13 49 3 21 12 46 20 55 8 9 20 39 27 66 7 28 18 64 25 80 6 17 24 71 40 120 16 50 34 104 41 120 26 65 64 196 64 220 0 14 4 33 9 43 27 53 40 94 72 227 12 50 26 98 31 107 4 10 13 41 18 70 6 29 14 62 19 73 12 25 40 136 50 195 4 25 12 54 19 65 14 24 42 138 42 170 0 13 8 39 19 57 10 18 24 71 30 118 7 47 19 92 27 101 8 9 18 50 24 93 5 43 12 81 15 85 2 5 7 25 9 45 3 21 9 43 15 50 9 11 30 112 37 183 2 18 10 43 18 55 8 13 22 75 31 138 17 120 30 183 46 212 5 10 9 36 9 58 0 41 14 112 32 165 6 17 14 57 18 90 5 33 13 73 19 88 6 16 11 48 11 72 0 24 4 46 9 49 10 7 31 110 36 182 4 43 8 68 31 159 4 18 8 43 28 164 3 18 11 52 17 75 11 41 16 70 44 256 8 52 17 114 21 138 l7 42 -902 0 -901 0 0 -3076z"/>
 </g>

<g fill="#971a28" stroke="none">
 <path d="M1855 13650 c10 -16 67 -37 149 -54 44 -9 86 -22 93 -28 7 -6 23 -12 36 -14 111 -15 202 -36 216 -48 10 -9 28 -16 40 -16 44 0 196 -33 212 -47 8 -7 25 -13 37 -13 33 0 184 -38 196 -50 5 -5 24 -10 41 -11 34 0 153 -30 173 -43 21 -13 113 -36 145 -36 15 0 44 -9 65 -19 20 -10 75 -26 121 -35 46 -8 89 -20 97 -27 15 -12 59 -24 141 -39 29 -5 67 -15 85 -23 42 -18 110 -37 134 -37 11 0 35 -9 55 -19 20 -11 61 -24 93 -30 31 -6 96 -24 144 -40 48 -16 109 -32 134 -36 26 -4 53 -13 59 -21 6 -8 23 -14 38 -14 14 0 55 -9 91 -20 138 -40 256 -78 290 -93 19 -8 58 -18 85 -22 28 -4 62 -15 76 -25 15 -11 40 -22 55 -26 16 -4 45 -15 64 -26 19 -10 46 -18 60 -18 14 0 70 -16 124 -35 55 -19 109 -35 120 -35 12 0 35 -9 51 -20 17 -11 37 -20 45 -20 9 0 49 -11 90 -25 41 -14 107 -35 145 -47 39 -11 81 -26 95 -33 32 -16 92 -35 111 -35 8 0 26 -7 41 -14 15 -8 64 -24 110 -36 45 -12 93 -27 107 -35 14 -7 53 -21 86 -30 33 -10 74 -23 90 -30 17 -7 57 -21 90 -30 33 -10 69 -23 80 -30 11 -7 47 -20 80 -29 33 -10 67 -23 75 -30 8 -7 42 -18 75 -25 33 -7 75 -21 92 -32 18 -10 52 -23 75 -29 47 -12 143 -46 170 -61 10 -5 26 -9 35 -9 10 0 32 -9 48 -20 17 -11 55 -25 85 -31 30 -7 62 -18 70 -24 8 -7 26 -16 40 -20 14 -4 32 -13 40 -21 9 -7 47 -23 85 -35 39 -11 77 -27 85 -34 8 -7 26 -15 40 -18 65 -14 116 -31 130 -42 8 -6 42 -19 75 -29 33 -10 65 -23 72 -28 7 -6 54 -25 105 -42 51 -18 120 -46 153 -62 33 -16 94 -41 135 -55 146 -52 179 -66 193 -77 7 -6 45 -22 83 -36 104 -36 197 -77 215 -92 8 -8 27 -14 42 -14 14 0 29 -4 32 -10 3 -5 13 -10 22 -10 8 0 27 -8 41 -18 15 -10 55 -29 90 -42 34 -12 65 -27 68 -31 3 -5 13 -9 22 -9 9 0 44 -14 77 -30 33 -16 63 -30 67 -30 4 0 44 -17 90 -39 46 -21 96 -41 111 -45 16 -4 50 -22 77 -41 28 -19 55 -35 61 -35 6 0 34 -12 63 -26 28 -14 64 -32 79 -40 16 -8 34 -14 41 -14 8 0 24 -8 37 -19 13 -10 42 -24 64 -31 22 -7 51 -21 65 -30 14 -10 36 -21 50 -25 14 -4 45 -18 70 -30 25 -13 65 -33 90 -44 25 -11 52 -25 60 -29 40 -24 188 -92 200 -92 8 0 23 -8 34 -19 12 -10 42 -26 68 -36 26 -10 53 -24 59 -31 6 -8 17 -14 24 -14 16 0 173 -78 204 -102 14 -10 43 -28 65 -38 23 -11 86 -45 141 -75 55 -30 112 -59 128 -66 15 -6 32 -20 37 -30 22 -40 170 -60 170 -24 0 10 -10 12 -35 8 l-36 -6 7 44 c3 24 15 81 25 125 10 45 19 95 19 111 0 29 9 90 31 201 7 31 15 86 19 122 20 177 41 337 45 350 3 8 7 40 10 70 4 30 11 82 16 115 25 145 34 219 64 495 9 74 20 160 26 190 7 30 15 105 20 165 4 61 12 139 17 175 5 36 16 117 25 180 9 63 23 207 32 320 9 113 22 252 30 310 18 130 43 441 37 458 -3 9 -990 12 -4889 12 -3164 0 -4882 -3 -4878 -10z"/>
 <path d="M22860 13650 c0 -5 -9 -10 -20 -10 -11 0 -20 -7 -20 -15 0 -17 23 -20 51 -5 23 13 26 40 4 40 -8 0 -15 -4 -15 -10z"/>
 <path d="M22753 13623 c-7 -2 -13 -12 -13 -20 0 -10 6 -13 16 -9 9 3 20 6 25 6 5 0 9 7 9 15 0 15 -14 18 -37 8z"/>
 <path d="M22666 13595 c-11 -8 -28 -15 -38 -15 -10 0 -18 -7 -18 -15 0 -8 5 -15 11 -15 23 0 79 33 79 46 0 18 -10 17 -34 -1z"/>
 <path d="M22548 13563 c-10 -2 -18 -11 -18 -20 0 -11 6 -14 23 -9 12 3 25 6 30 6 4 0 7 7 7 15 0 15 -9 17 -42 8z"/>
 <path d="M22464 13535 c-10 -8 -27 -15 -36 -15 -18 0 -26 -30 -8 -30 21 0 80 35 80 47 0 17 -12 16 -36 -2z"/>
 <path d="M22348 13503 c-10 -2 -18 -11 -18 -20 0 -10 6 -13 16 -9 9 3 20 6 25 6 5 0 9 7 9 15 0 15 -2 16 -32 8z"/>
 <path d="M22260 13475 c-7 -9 -11 -18 -8 -20 9 -10 38 7 38 21 0 18 -14 18 -30 -1z"/>
 <path d="M22200 13445 c0 -8 7 -15 15 -15 8 0 15 7 15 15 0 8 -7 15 -15 15 -8 0 -15 -7 -15 -15z"/>
 <path d="M22138 13443 c-10 -2 -18 -11 -18 -20 0 -10 6 -13 16 -9 9 3 20 6 25 6 5 0 9 7 9 15 0 15 -2 16 -32 8z"/>
 <path d="M22044 13415 c-10 -8 -27 -15 -36 -15 -19 0 -26 -30 -7 -30 23 0 79 33 79 46 0 18 -11 18 -36 -1z"/>
 <path d="M21950 13375 c0 -8 5 -15 10 -15 6 0 10 7 10 15 0 8 -4 15 -10 15 -5 0 -10 -7 -10 -15z"/>
 <path d="M21844 13355 c-10 -8 -27 -15 -36 -15 -18 0 -26 -30 -8 -30 21 0 80 35 80 47 0 17 -12 16 -36 -2z"/>
 <path d="M21728 13323 c-10 -2 -18 -11 -18 -20 0 -10 6 -13 16 -9 9 3 20 6 25 6 5 0 9 7 9 15 0 15 -2 16 -32 8z"/>
 <path d="M21634 13295 c-10 -8 -27 -15 -36 -15 -21 0 -24 -30 -3 -30 23 0 84 34 85 48 0 16 -22 15 -46 -3z"/>
 <path d="M21528 13263 c-10 -2 -18 -11 -18 -20 0 -10 6 -13 16 -9 9 3 20 6 25 6 5 0 9 7 9 15 0 15 -2 16 -32 8z"/>
 <path d="M21436 13235 c-11 -8 -28 -15 -38 -15 -10 0 -18 -7 -18 -15 0 -8 5 -15 11 -15 23 0 79 33 79 46 0 18 -10 17 -34 -1z"/>
 <path d="M21308 13203 c-10 -2 -18 -11 -18 -20 0 -10 6 -13 16 -9 9 3 22 6 30 6 8 0 14 7 14 15 0 15 -9 17 -42 8z"/>
 <path d="M21215 13170 c-3 -5 -15 -10 -26 -10 -10 0 -19 -7 -19 -15 0 -8 5 -15 11 -15 15 0 69 33 69 42 0 12 -28 10 -35 -2z"/>
 <path d="M21108 13143 c-10 -2 -18 -11 -18 -20 0 -10 6 -13 16 -9 9 3 20 6 25 6 5 0 9 7 9 15 0 15 -2 16 -32 8z"/>
 <path d="M21003 13111 c-28 -14 -46 -41 -27 -41 19 0 74 34 74 46 0 17 -5 16 -47 -5z"/>
 <path d="M20913 13083 c-7 -2 -13 -12 -13 -20 0 -10 6 -13 16 -9 9 3 18 6 20 6 2 0 4 7 4 15 0 15 -6 17 -27 8z"/>
 <path d="M20813 13052 c-30 -16 -45 -42 -23 -42 20 0 80 36 80 48 0 16 -18 14 -57 -6z"/>
 <path d="M20713 13023 c-7 -2 -13 -12 -13 -20 0 -10 6 -13 16 -9 9 3 20 6 25 6 5 0 9 7 9 15 0 15 -14 18 -37 8z"/>
 <path d="M20613 12992 c-30 -16 -45 -42 -23 -42 20 0 80 36 80 48 0 16 -18 14 -57 -6z"/>
 <path d="M20508 12963 c-10 -2 -18 -11 -18 -20 0 -11 6 -14 23 -9 12 3 25 6 30 6 4 0 7 7 7 15 0 15 -9 17 -42 8z"/>
 <path d="M20393 12932 c-33 -17 -44 -42 -20 -42 7 0 22 7 33 15 10 8 27 15 37 15 9 0 17 7 17 15 0 19 -26 18 -67 -3z"/>
 <path d="M20293 12903 c-7 -2 -13 -12 -13 -20 0 -10 6 -13 16 -9 9 3 22 6 30 6 8 0 14 7 14 15 0 15 -22 19 -47 8z"/>
 <path d="M20193 12872 c-30 -16 -45 -42 -23 -42 20 0 80 36 80 48 0 16 -18 14 -57 -6z"/>
 <path d="M20098 12843 c-10 -2 -18 -11 -18 -20 0 -10 6 -13 16 -9 9 3 20 6 25 6 5 0 9 7 9 15 0 15 -2 16 -32 8z"/>
 <path d="M19990 12809 c-19 -10 -43 -19 -53 -19 -27 0 -77 -32 -77 -48 0 -10 6 -12 18 -7 9 5 37 16 62 25 93 36 110 45 110 57 0 18 -19 15 -60 -8z"/>
 <path d="M19788 12743 c-10 -2 -18 -11 -18 -20 0 -11 6 -14 23 -9 12 3 25 6 30 6 4 0 7 7 7 15 0 15 -9 17 -42 8z"/>
 <path d="M19683 12712 c-33 -17 -44 -42 -20 -42 7 0 22 7 33 15 10 8 27 15 37 15 9 0 17 7 17 15 0 19 -26 18 -67 -3z"/>
 <path d="M19578 12683 c-10 -2 -18 -11 -18 -20 0 -10 6 -13 16 -9 9 3 20 6 25 6 5 0 9 7 9 15 0 15 -2 16 -32 8z"/>
 <path d="M19473 12652 c-28 -15 -45 -42 -26 -42 18 0 83 37 83 48 0 16 -18 14 -57 -6z"/>
 <path d="M19373 12623 c-7 -2 -13 -12 -13 -20 0 -10 6 -13 16 -9 9 3 20 6 25 6 5 0 9 7 9 15 0 15 -14 18 -37 8z"/>
 <path d="M19268 12592 c-30 -18 -37 -42 -14 -42 7 0 19 7 26 15 7 8 19 15 26 15 8 0 14 7 14 15 0 19 -17 18 -52 -3z"/>
 <path d="M19168 12563 c-10 -2 -18 -11 -18 -20 0 -10 6 -13 16 -9 9 3 22 6 30 6 8 0 14 7 14 15 0 15 -9 17 -42 8z"/>
 <path d="M19063 12532 c-30 -16 -45 -42 -23 -42 20 0 80 36 80 48 0 16 -18 14 -57 -6z"/>
 <path d="M18968 12503 c-10 -2 -18 -11 -18 -20 0 -10 6 -13 16 -9 9 3 20 6 25 6 5 0 9 7 9 15 0 15 -2 16 -32 8z"/>
 <path d="M18863 12472 c-30 -16 -45 -42 -23 -42 20 0 80 36 80 48 0 16 -18 14 -57 -6z"/>
 <path d="M18753 12443 c-24 -5 -33 -33 -10 -33 29 0 57 13 57 26 0 14 -6 15 -47 7z"/>
 <path d="M18648 12412 c-27 -16 -40 -49 -15 -39 46 20 67 34 67 45 0 17 -20 15 -52 -6z"/>
 <path d="M18548 12383 c-10 -2 -18 -11 -18 -20 0 -10 6 -13 16 -9 9 3 22 6 30 6 8 0 14 7 14 15 0 15 -9 17 -42 8z"/>
 <path d="M18443 12352 c-30 -16 -45 -42 -23 -42 20 0 80 36 80 48 0 16 -18 14 -57 -6z"/>
 <path d="M18343 12323 c-7 -2 -13 -12 -13 -20 0 -10 6 -13 16 -9 9 3 22 6 30 6 8 0 14 7 14 15 0 15 -22 19 -47 8z"/>
 <path d="M18243 12292 c-30 -16 -45 -42 -24 -42 18 0 71 35 71 48 0 15 -7 15 -47 -6z"/>
 <path d="M18143 12263 c-13 -2 -23 -11 -23 -20 0 -11 6 -14 23 -9 12 3 25 6 30 6 4 0 7 7 7 15 0 8 -3 14 -7 14 -5 -1 -18 -4 -30 -6z"/>
 <path d="M18033 12232 c-33 -17 -44 -42 -20 -42 7 0 22 7 33 15 10 8 27 15 37 15 9 0 17 7 17 15 0 19 -26 18 -67 -3z"/>
 <path d="M17933 12203 c-24 -5 -33 -33 -10 -33 29 0 57 13 57 26 0 14 -6 15 -47 7z"/>
 <path d="M17823 12172 c-33 -17 -44 -42 -20 -42 7 0 22 7 33 15 10 8 27 15 37 15 9 0 17 7 17 15 0 19 -26 18 -67 -3z"/>
 <path d="M17723 12143 c-7 -2 -13 -12 -13 -20 0 -10 6 -13 16 -9 9 3 20 6 25 6 5 0 9 7 9 15 0 15 -14 18 -37 8z"/>
 <path d="M17623 12112 c-30 -16 -45 -42 -23 -42 20 0 80 36 80 48 0 16 -18 14 -57 -6z"/>
 <path d="M17518 12083 c-10 -2 -18 -11 -18 -20 0 -11 6 -14 23 -9 12 3 25 6 30 6 4 0 7 7 7 15 0 15 -9 17 -42 8z"/>
 <path d="M17418 12052 c-16 -9 -28 -22 -28 -29 0 -17 12 -16 36 2 10 8 27 15 37 15 9 0 17 7 17 15 0 20 -28 19 -62 -3z"/>
 <path d="M17318 12023 c-10 -2 -18 -11 -18 -20 0 -11 6 -14 23 -9 12 3 25 6 30 6 4 0 7 7 7 15 0 15 -9 17 -42 8z"/>
 <path d="M17210 11989 c-19 -10 -44 -19 -56 -19 -12 0 -27 -7 -34 -15 -7 -8 -19 -15 -26 -15 -8 0 -14 -7 -14 -15 0 -20 13 -19 57 5 21 11 43 20 50 20 22 0 83 35 83 48 0 17 -19 14 -60 -9z"/>
 <path d="M17003 11923 c-7 -2 -13 -12 -13 -20 0 -10 6 -13 16 -9 9 3 20 6 25 6 5 0 9 7 9 15 0 15 -14 18 -37 8z"/>
 <path d="M16903 11893 c-18 -9 -33 -23 -33 -31 0 -7 3 -12 8 -10 4 2 24 10 45 18 20 8 37 20 37 27 0 17 -17 16 -57 -4z"/>
 <path d="M16798 11863 c-18 -5 -25 -33 -9 -33 21 0 41 13 41 26 0 14 -3 15 -32 7z"/>
 <path d="M16693 11832 c-18 -9 -33 -23 -33 -29 0 -18 35 -16 50 2 7 8 19 15 26 15 8 0 14 7 14 15 0 19 -16 18 -57 -3z"/>
 <path d="M16593 11803 c-7 -2 -13 -12 -13 -20 0 -10 6 -13 16 -9 9 3 20 6 25 6 5 0 9 7 9 15 0 15 -14 18 -37 8z"/>
 <path d="M16493 11772 c-30 -16 -45 -42 -23 -42 20 0 80 36 80 48 0 16 -18 14 -57 -6z"/>
 <path d="M16393 11743 c-7 -2 -13 -12 -13 -20 0 -10 6 -13 16 -9 9 3 20 6 25 6 5 0 9 7 9 15 0 15 -14 18 -37 8z"/>
 <path d="M16292 11714 c-20 -13 -33 -52 -14 -42 4 3 22 11 40 18 34 15 44 40 14 40 -10 0 -28 -7 -40 -16z"/>
 <path d="M16178 11683 c-18 -5 -25 -33 -9 -33 21 0 41 13 41 26 0 14 -3 15 -32 7z"/>
 <path d="M16073 11652 c-30 -16 -45 -42 -23 -42 20 0 80 36 80 48 0 16 -18 14 -57 -6z"/>
 <path d="M15978 11623 c-18 -5 -25 -33 -9 -33 21 0 41 13 41 26 0 14 -3 15 -32 7z"/>
 <path d="M15873 11592 c-30 -16 -45 -42 -23 -42 20 0 80 36 80 48 0 16 -18 14 -57 -6z"/>
 <path d="M15768 11563 c-10 -2 -18 -11 -18 -20 0 -11 6 -14 23 -9 12 3 25 6 30 6 4 0 7 7 7 15 0 15 -9 17 -42 8z"/>
 <path d="M15673 11533 c-18 -9 -33 -23 -33 -31 0 -7 3 -12 8 -10 4 2 24 10 45 18 20 8 37 20 37 27 0 17 -17 16 -57 -4z"/>
 <path d="M15568 11503 c-18 -5 -25 -33 -9 -33 21 0 41 13 41 26 0 14 -3 15 -32 7z"/>
 <path d="M15463 11472 c-30 -16 -45 -42 -23 -42 20 0 80 36 80 48 0 16 -18 14 -57 -6z"/>
 <path d="M15358 11443 c-10 -2 -18 -11 -18 -20 0 -10 6 -13 16 -9 9 3 22 6 30 6 8 0 14 7 14 15 0 15 -9 17 -42 8z"/>
 <path d="M15253 11412 c-30 -16 -45 -42 -23 -42 20 0 80 36 80 48 0 16 -18 14 -57 -6z"/>
 <path d="M15138 11383 c-10 -2 -18 -11 -18 -20 0 -11 6 -14 23 -9 12 3 28 6 35 6 6 0 12 7 12 15 0 15 -17 17 -52 8z"/>
 <path d="M15042 11348 c-14 -14 -16 -38 -4 -38 12 0 32 23 32 37 0 16 -12 17 -28 1z"/>
 <path d="M14938 11323 c-31 -5 -39 -33 -9 -33 30 0 51 11 51 26 0 8 -3 13 -7 13 -5 -1 -20 -4 -35 -6z"/>
 <path d="M14848 11286 c-19 -14 -24 -36 -10 -36 10 0 42 33 42 43 0 11 -13 8 -32 -7z"/>
 <path d="M14743 11263 c-13 -2 -23 -11 -23 -20 0 -12 7 -14 31 -9 17 3 35 6 40 6 5 0 9 7 9 15 0 15 -13 17 -57 8z"/>
 <path d="M14650 11235 c-7 -8 -19 -15 -26 -15 -8 0 -14 -7 -14 -15 0 -8 6 -15 14 -15 7 0 19 7 26 15 7 8 21 15 31 15 11 0 19 7 19 15 0 8 -8 15 -19 15 -10 0 -24 -7 -31 -15z"/>
 <path d="M14533 11203 c-24 -5 -33 -33 -10 -33 29 0 57 13 57 26 0 14 -6 15 -47 7z"/>
 <path d="M14423 11171 c-33 -16 -45 -41 -20 -41 7 0 22 7 33 15 10 8 27 15 37 15 9 0 17 7 17 15 0 19 -25 17 -67 -4z"/>
 <path d="M14328 11143 c-10 -2 -18 -11 -18 -20 0 -10 6 -13 16 -9 9 3 22 6 30 6 8 0 14 7 14 15 0 15 -9 17 -42 8z"/>
 <path d="M14220 11109 c-19 -11 -45 -19 -56 -19 -12 0 -27 -7 -34 -15 -7 -8 -19 -15 -26 -15 -8 0 -14 -7 -14 -15 0 -20 13 -19 57 5 21 11 47 20 59 20 12 0 27 7 34 15 7 8 19 15 26 15 8 0 14 7 14 15 0 19 -16 17 -60 -6z"/>
 <path d="M14018 11043 c-10 -2 -18 -11 -18 -20 0 -11 6 -14 23 -9 12 3 25 6 30 6 4 0 7 7 7 15 0 15 -9 17 -42 8z"/>
 <path d="M13918 11012 c-35 -16 -52 -42 -28 -42 22 0 90 36 90 47 0 17 -16 15 -62 -5z"/>
 <path d="M13818 10983 c-10 -2 -18 -11 -18 -20 0 -11 6 -14 23 -9 12 3 25 6 30 6 4 0 7 7 7 15 0 15 -9 17 -42 8z"/>
 <path d="M13713 10952 c-30 -16 -45 -42 -23 -42 20 0 80 36 80 48 0 16 -18 14 -57 -6z"/>
 <path d="M13613 10923 c-7 -2 -13 -12 -13 -20 0 -10 6 -13 16 -9 9 3 20 6 25 6 5 0 9 7 9 15 0 15 -14 18 -37 8z"/>
 <path d="M13503 10892 c-30 -16 -45 -42 -23 -42 20 0 80 36 80 48 0 16 -18 14 -57 -6z"/>
 <path d="M13403 10863 c-7 -2 -13 -12 -13 -20 0 -10 6 -13 16 -9 9 3 20 6 25 6 5 0 9 7 9 15 0 15 -14 18 -37 8z"/>
 <path d="M13310 10835 c-7 -8 -19 -15 -26 -15 -8 0 -14 -7 -14 -15 0 -8 4 -15 10 -15 20 0 80 36 80 48 0 17 -35 15 -50 -3z"/>
 <path d="M13198 10803 c-10 -2 -18 -11 -18 -20 0 -11 6 -14 23 -9 12 3 25 6 30 6 4 0 7 7 7 15 0 15 -9 17 -42 8z"/>
 <path d="M13093 10771 c-33 -16 -45 -41 -20 -41 7 0 22 7 33 15 10 8 27 15 37 15 9 0 17 7 17 15 0 19 -25 17 -67 -4z"/>
 <path d="M12998 10743 c-10 -2 -18 -11 -18 -20 0 -10 6 -13 16 -9 9 3 20 6 25 6 5 0 9 7 9 15 0 15 -2 16 -32 8z"/>
 <path d="M12893 10712 c-30 -16 -45 -42 -23 -42 20 0 80 36 80 48 0 16 -18 14 -57 -6z"/>
 <path d="M12793 10683 c-25 -5 -32 -33 -9 -33 25 0 46 12 46 26 0 8 -3 13 -7 13 -5 -1 -18 -4 -30 -6z"/>
 <path d="M12678 10652 c-33 -15 -53 -42 -31 -42 21 0 93 37 93 48 0 16 -16 14 -62 -6z"/>
 <path d="M12578 10623 c-10 -2 -18 -11 -18 -20 0 -10 6 -13 16 -9 9 3 22 6 30 6 8 0 14 7 14 15 0 15 -9 17 -42 8z"/>
 <path d="M12473 10592 c-18 -9 -33 -23 -33 -29 0 -18 35 -16 50 2 7 8 21 15 31 15 11 0 19 7 19 15 0 19 -26 18 -67 -3z"/>
 <path d="M12373 10563 c-7 -2 -13 -12 -13 -20 0 -10 6 -13 16 -9 9 3 22 6 30 6 8 0 14 7 14 15 0 15 -22 19 -47 8z"/>
 <path d="M12273 10534 c-31 -15 -46 -44 -23 -44 20 0 80 36 80 48 0 16 -18 15 -57 -4z"/>
 <path d="M12173 10503 c-7 -2 -13 -12 -13 -20 0 -10 6 -13 16 -9 9 3 18 6 20 6 2 0 4 7 4 15 0 15 -6 17 -27 8z"/>
 <path d="M12068 10472 c-30 -18 -37 -42 -14 -42 7 0 19 7 26 15 7 8 21 15 31 15 11 0 19 7 19 15 0 19 -27 18 -62 -3z"/>
 <path d="M11963 10443 c-13 -2 -23 -11 -23 -20 0 -11 6 -14 23 -9 12 3 25 6 30 6 4 0 7 7 7 15 0 8 -3 14 -7 14 -5 -1 -18 -4 -30 -6z"/>
 <path d="M11853 10412 c-33 -17 -44 -42 -20 -42 7 0 22 7 33 15 10 8 27 15 37 15 9 0 17 7 17 15 0 19 -26 18 -67 -3z"/>
 <path d="M11758 10383 c-10 -2 -18 -11 -18 -20 0 -10 6 -13 16 -9 9 3 20 6 25 6 5 0 9 7 9 15 0 15 -2 16 -32 8z"/>
 <path d="M11664 10355 c-10 -8 -27 -15 -36 -15 -21 0 -24 -30 -3 -30 23 0 84 34 85 48 0 16 -22 15 -46 -3z"/>
 <path d="M11553 10323 c-7 -2 -13 -12 -13 -20 0 -10 6 -13 16 -9 9 3 20 6 25 6 5 0 9 7 9 15 0 15 -14 18 -37 8z"/>
 <path d="M11462 10300 c-22 -9 -39 -36 -30 -46 9 -8 68 30 68 44 0 14 -6 14 -38 2z"/>
 <path d="M11364 10256 c-10 -8 -16 -17 -13 -21 11 -10 59 6 59 21 0 18 -21 18 -46 0z"/>
 <path d="M11310 10225 c0 -8 5 -15 10 -15 6 0 10 7 10 15 0 8 -4 15 -10 15 -5 0 -10 -7 -10 -15z"/>
 <path d="M10910 10196 c0 -10 19 -16 64 -21 71 -8 106 -1 106 21 0 11 -18 14 -85 14 -67 0 -85 -3 -85 -14z"/>
 <path d="M10450 10135 c0 -31 132 -34 138 -2 3 15 -5 17 -67 17 -55 0 -71 -3 -71 -15z"/>
 <path d="M9995 10080 c-13 -21 7 -27 77 -26 61 1 73 4 76 19 3 15 -5 17 -72 17 -41 0 -78 -4 -81 -10z"/>
 <path d="M9594 10019 c-12 -20 13 -30 67 -27 42 2 55 7 57 21 3 15 -5 17 -57 17 -33 0 -63 -5 -67 -11z"/>
 <path d="M9190 9956 c0 -10 16 -17 45 -22 52 -7 75 -1 75 21 0 12 -13 15 -60 15 -46 0 -60 -3 -60 -14z"/>
 <path d="M8850 9896 c0 -18 42 -31 66 -22 27 10 9 31 -29 34 -28 2 -37 -1 -37 -12z"/>
 <path d="M8700 9875 c0 -8 5 -15 10 -15 6 0 10 7 10 15 0 8 -4 15 -10 15 -5 0 -10 -7 -10 -15z"/>
 <path d="M8450 9836 c0 -16 21 -26 55 -26 34 0 55 10 55 26 0 10 -15 14 -55 14 -40 0 -55 -4 -55 -14z"/>
 <path d="M8138 9793 c-39 -6 -35 -30 7 -37 39 -8 55 -2 55 19 0 10 -27 29 -33 24 -1 -1 -14 -4 -29 -6z"/>
 <path d="M7782 9713 c2 -14 13 -18 43 -18 30 0 41 4 43 18 3 14 -4 17 -43 17 -39 0 -46 -3 -43 -17z"/>
 <path d="M7442 9653 c3 -14 13 -18 48 -18 35 0 45 4 48 18 3 14 -4 17 -48 17 -44 0 -51 -3 -48 -17z"/>
 <path d="M7142 9593 c2 -14 13 -18 43 -18 30 0 41 4 43 18 3 14 -4 17 -43 17 -39 0 -46 -3 -43 -17z"/>
 <path d="M7040 9564 c0 -9 5 -14 12 -12 18 6 21 28 4 28 -9 0 -16 -7 -16 -16z"/>
 <path d="M6868 9553 c-24 -6 -23 -29 1 -36 29 -7 71 4 71 19 0 8 -6 14 -14 14 -8 0 -20 2 -28 4 -7 2 -21 2 -30 -1z"/>
 <path d="M6530 9476 c0 -18 77 -33 92 -18 18 18 -2 32 -48 32 -31 0 -44 -4 -44 -14z"/>
 <path d="M6242 9413 c6 -32 108 -29 108 2 0 11 -13 15 -56 15 -47 0 -55 -3 -52 -17z"/>
 <path d="M6155 9391 c-43 -9 -39 -35 6 -39 37 -3 67 17 54 38 -7 11 -14 11 -60 1z"/>
 <path d="M6010 9355 c0 -8 7 -15 15 -15 8 0 15 7 15 15 0 8 -7 15 -15 15 -8 0 -15 -7 -15 -15z"/>
 <path d="M5867 9333 c-33 -9 -15 -38 23 -38 28 0 35 4 35 20 0 21 -23 28 -58 18z"/>
 <path d="M5614 9259 c-3 -6 -2 -15 4 -21 15 -15 56 -5 60 15 3 13 -3 17 -27 17 -16 0 -33 -5 -37 -11z"/>
 <path d="M5345 9200 c-9 -15 4 -30 25 -30 29 0 50 11 50 26 0 16 -65 20 -75 4z"/>
 <path d="M5110 9136 c0 -20 12 -26 38 -19 33 8 27 33 -8 33 -19 0 -30 -5 -30 -14z"/>
 <path d="M4994 9119 c-9 -15 12 -33 30 -26 9 4 16 13 16 22 0 17 -35 21 -46 4z"/>
 <path d="M4840 9075 c0 -16 42 -30 65 -21 8 3 15 12 15 21 0 11 -11 15 -40 15 -29 0 -40 -4 -40 -15z"/>
 <path d="M4634 9019 c-10 -17 12 -32 35 -24 29 9 27 35 -3 35 -14 0 -28 -5 -32 -11z"/>
 <path d="M4394 8959 c-3 -6 -2 -15 4 -21 15 -15 46 -5 50 15 3 12 -3 17 -22 17 -14 0 -28 -5 -32 -11z"/>
 <path d="M4154 8899 c-10 -18 9 -27 44 -22 44 7 43 33 -2 33 -19 0 -38 -5 -42 -11z"/>
 <path d="M3940 8836 c0 -18 31 -29 54 -20 30 12 18 34 -19 34 -24 0 -35 -5 -35 -14z"/>
 <path d="M3745 8780 c-4 -7 -3 -16 3 -22 14 -14 57 -6 57 12 0 18 -50 26 -60 10z"/>
 <path d="M3535 8726 c-15 -11 -17 -17 -8 -27 17 -17 65 -3 61 19 -4 22 -29 26 -53 8z"/>
 <path d="M3330 8655 c0 -9 9 -15 25 -15 16 0 25 6 25 15 0 9 -9 15 -25 15 -16 0 -25 -6 -25 -15z"/>
 <path d="M3110 8595 c0 -10 11 -15 35 -15 24 0 35 5 35 15 0 10 -11 15 -35 15 -24 0 -35 -5 -35 -15z"/>
 <path d="M3030 8555 c0 -10 10 -15 30 -15 20 0 30 5 30 15 0 10 -10 15 -30 15 -20 0 -30 -5 -30 -15z"/>
 <path d="M2944 8539 c-9 -15 12 -33 30 -26 9 4 16 13 16 22 0 17 -35 21 -46 4z"/>
 <path d="M2830 8496 c0 -12 10 -16 36 -16 45 0 42 24 -4 28 -24 2 -32 -1 -32 -12z"/>
 <path d="M2624 8439 c-10 -17 11 -31 42 -27 18 2 30 10 32 21 3 13 -4 17 -32 17 -19 0 -38 -5 -42 -11z"/>
 <path d="M2454 8379 c-3 -6 -2 -15 4 -21 15 -15 56 -5 60 15 3 13 -3 17 -27 17 -16 0 -33 -5 -37 -11z"/>
 <path d="M2284 8319 c-3 -6 -2 -15 4 -21 15 -15 46 -5 50 15 3 12 -3 17 -22 17 -14 0 -28 -5 -32 -11z"/>
 <path d="M2110 8256 c0 -16 27 -29 41 -20 19 11 9 34 -16 34 -15 0 -25 -6 -25 -14z"/>
 <path d="M1932 8193 c2 -12 12 -18 28 -18 36 0 33 29 -3 33 -23 3 -28 0 -25 -15z"/>
 <path d="M1770 8141 c0 -5 7 -12 16 -15 22 -9 24 -8 24 9 0 8 -9 15 -20 15 -11 0 -20 -4 -20 -9z"/>
 <path d="M1700 8110 c0 -5 7 -10 15 -10 8 0 15 5 15 10 0 6 -7 10 -15 10 -8 0 -15 -4 -15 -10z"/>
 <path d="M1594 8085 c-10 -25 10 -39 36 -25 26 14 22 34 -8 38 -13 2 -25 -3 -28 -13z"/>
 <path d="M1447 8034 c-14 -15 -6 -34 14 -34 14 0 19 5 17 17 -3 18 -20 27 -31 17z"/>
 <path d="M1274 7959 c-9 -15 12 -33 30 -26 9 4 16 13 16 22 0 17 -35 21 -46 4z"/>
 <path d="M1207 7943 c-12 -11 -8 -23 8 -23 8 0 15 7 15 15 0 16 -12 20 -23 8z"/>
 <path d="M1115 7900 c-4 -7 -3 -16 3 -22 14 -14 47 -6 47 12 0 18 -40 26 -50 10z"/>
 <path d="M982 7833 c2 -10 10 -18 18 -18 8 0 16 8 18 18 2 12 -3 17 -18 17 -15 0 -20 -5 -18 -17z"/>
 <path d="M900 7815 c-7 -9 -10 -18 -7 -21 10 -11 37 5 37 21 0 19 -14 19 -30 0z"/>
 <path d="M820 7775 c0 -8 7 -15 15 -15 8 0 15 7 15 15 0 8 -7 15 -15 15 -8 0 -15 -7 -15 -15z"/>
 <path d="M670 7715 c0 -8 7 -15 15 -15 8 0 15 7 15 15 0 8 -7 15 -15 15 -8 0 -15 -7 -15 -15z"/>
 <path d="M584 7679 c-3 -6 -2 -15 3 -20 13 -13 43 -1 43 17 0 16 -36 19 -46 3z"/>
 <path d="M450 7616 c0 -11 9 -16 26 -16 31 0 28 23 -4 28 -15 2 -22 -2 -22 -12z"/>
 <path d="M315 7560 c-4 -7 -3 -16 3 -22 14 -14 45 -2 40 15 -6 16 -34 21 -43 7z"/>
 <path d="M184 7499 c-9 -15 12 -33 30 -26 9 4 16 13 16 22 0 17 -35 21 -46 4z"/>
 <path d="M64 7439 c-8 -14 11 -33 25 -25 16 10 13 36 -3 36 -8 0 -18 -5 -22 -11z"/>
 <path d="M0 7405 c0 -8 5 -15 10 -15 6 0 10 7 10 15 0 8 -4 15 -10 15 -5 0 -10 -7 -10 -15z"/>
 </g>

<g fill="#b4b6b5" stroke="none">
 <path d="M22913 13641 c-7 -12 -28 -21 -55 -25 -113 -15 -135 -20 -157 -37 -13 -11 -32 -19 -42 -19 -32 0 -112 -21 -144 -37 -28 -15 -71 -26 -155 -40 -19 -3 -46 -13 -59 -21 -13 -9 -44 -19 -70 -23 -86 -14 -128 -26 -152 -42 -13 -10 -36 -17 -51 -17 -15 0 -30 -4 -33 -10 -3 -5 -23 -10 -43 -10 -21 0 -46 -6 -57 -14 -22 -15 -134 -46 -168 -46 -11 0 -28 -6 -36 -14 -9 -8 -38 -19 -66 -24 -85 -18 -139 -33 -150 -42 -13 -11 -81 -29 -147 -39 -25 -4 -54 -13 -63 -21 -9 -7 -36 -17 -61 -22 -24 -4 -63 -12 -87 -16 -24 -5 -54 -16 -67 -25 -14 -9 -36 -17 -50 -17 -25 0 -50 -16 -50 -31 0 -8 128 -59 147 -59 6 0 13 -7 17 -15 3 -8 14 -15 25 -15 20 0 49 -11 145 -57 28 -13 60 -23 72 -23 13 0 26 -5 29 -10 7 -11 88 -50 103 -50 6 0 32 -15 59 -34 27 -18 94 -55 149 -80 54 -26 110 -53 124 -61 14 -7 79 -40 145 -74 66 -33 144 -76 172 -95 29 -19 63 -38 75 -42 31 -9 171 -86 179 -97 4 -5 33 -23 65 -39 116 -58 133 -68 198 -113 36 -25 70 -45 75 -45 5 0 30 -16 55 -35 26 -19 49 -35 53 -35 4 0 51 -30 105 -67 54 -38 108 -73 120 -80 20 -11 56 -36 144 -100 24 -18 47 -33 50 -33 3 0 24 -14 46 -32 23 -18 53 -39 68 -47 59 -35 100 -63 100 -72 0 -5 14 -16 31 -24 17 -9 58 -37 91 -63 34 -26 104 -79 157 -118 53 -39 107 -83 121 -96 14 -14 40 -31 58 -38 18 -7 37 -21 43 -31 5 -11 15 -19 22 -19 7 0 35 -20 62 -45 28 -25 69 -60 91 -78 23 -17 51 -46 63 -64 12 -18 27 -33 35 -33 7 0 21 -10 32 -21 10 -12 35 -32 54 -44 19 -13 56 -43 82 -67 26 -23 79 -72 120 -108 40 -36 97 -88 128 -116 30 -28 64 -56 75 -62 46 -24 453 -425 721 -710 71 -75 140 -146 153 -157 40 -34 54 -49 116 -120 33 -37 87 -98 120 -135 99 -111 159 -181 180 -210 32 -44 156 -196 210 -256 54 -61 116 -141 156 -201 9 -13 26 -31 38 -39 23 -16 97 -110 119 -150 7 -13 17 -24 22 -24 6 0 17 -17 25 -37 9 -21 24 -47 35 -58 64 -69 77 -85 95 -119 11 -20 30 -47 43 -58 12 -12 22 -27 22 -34 0 -6 7 -17 16 -25 15 -12 138 -181 160 -220 6 -10 18 -27 27 -37 9 -10 22 -31 29 -48 7 -17 23 -43 36 -60 33 -42 92 -132 92 -141 1 -5 14 -24 30 -43 17 -19 30 -42 30 -51 0 -9 7 -22 16 -29 8 -8 21 -27 29 -44 7 -17 25 -44 39 -61 l25 -30 1 3073 0 3072 -2198 0 c-2146 0 -2197 0 -2209 -19z"/>
 <path d="M12490 10304 c-98 -11 -328 -24 -509 -30 -118 -3 -226 -10 -240 -16 -14 -6 -105 -14 -201 -19 -158 -7 -360 -36 -391 -55 -7 -4 -62 -11 -123 -15 -214 -16 -321 -28 -351 -39 -16 -6 -75 -15 -130 -20 -206 -19 -292 -29 -321 -40 -16 -6 -69 -15 -119 -20 -49 -5 -136 -14 -192 -19 -57 -6 -112 -15 -124 -22 -12 -6 -63 -15 -113 -20 -209 -21 -263 -28 -291 -39 -16 -6 -68 -16 -115 -21 -208 -22 -247 -28 -285 -42 -22 -9 -69 -18 -105 -21 -143 -12 -230 -25 -252 -37 -13 -7 -59 -16 -103 -20 -145 -14 -234 -28 -255 -39 -11 -6 -55 -15 -98 -21 -42 -5 -110 -14 -151 -19 -40 -5 -79 -15 -87 -21 -8 -6 -48 -16 -89 -20 -41 -5 -108 -13 -148 -17 -40 -5 -83 -15 -97 -22 -13 -7 -53 -16 -89 -21 -153 -19 -199 -27 -222 -39 -13 -7 -50 -16 -84 -21 -151 -19 -209 -30 -222 -41 -8 -7 -43 -16 -77 -20 -147 -17 -210 -29 -222 -39 -7 -6 -42 -15 -76 -19 -139 -20 -184 -29 -213 -44 -16 -9 -43 -16 -58 -16 -15 0 -44 -7 -65 -16 -36 -16 -62 -22 -200 -43 -35 -5 -70 -15 -77 -21 -13 -10 -43 -17 -185 -37 -19 -2 -57 -13 -85 -23 -52 -19 -154 -40 -194 -40 -12 0 -36 -7 -52 -16 -17 -8 -56 -20 -87 -26 -31 -5 -79 -14 -105 -18 -27 -5 -56 -15 -64 -21 -14 -12 -45 -18 -168 -35 -27 -4 -63 -14 -80 -22 -29 -15 -63 -23 -172 -40 -28 -5 -59 -15 -68 -22 -15 -13 -44 -19 -161 -38 -27 -4 -61 -16 -74 -25 -14 -9 -35 -17 -49 -17 -30 0 -71 -10 -277 -71 -17 -5 -41 -9 -55 -9 -13 0 -41 -9 -62 -20 -20 -11 -46 -20 -57 -20 -29 0 -110 -20 -150 -38 -35 -15 -78 -26 -157 -41 -23 -4 -48 -13 -55 -18 -7 -6 -47 -19 -88 -28 -41 -9 -90 -24 -108 -32 -17 -9 -51 -20 -75 -24 -101 -19 -142 -30 -157 -44 -9 -8 -24 -15 -34 -15 -9 0 -34 -9 -54 -19 -20 -11 -64 -25 -97 -31 -33 -7 -67 -16 -75 -21 -30 -18 -56 -27 -115 -40 -33 -6 -71 -19 -85 -27 -24 -15 -58 -24 -147 -41 -24 -4 -51 -15 -60 -23 -10 -9 -31 -18 -48 -21 -79 -15 -116 -25 -130 -37 -8 -6 -31 -16 -52 -22 -21 -5 -56 -14 -78 -19 -22 -6 -47 -16 -55 -23 -8 -7 -28 -16 -45 -20 -16 -4 -46 -10 -65 -15 -19 -4 -46 -14 -60 -23 -14 -8 -45 -20 -70 -27 -25 -7 -62 -21 -82 -32 -20 -10 -48 -19 -62 -19 -14 0 -28 -4 -31 -10 -3 -6 -16 -10 -27 -10 -11 0 -39 -8 -62 -19 -48 -22 -107 -41 -126 -41 -7 0 -21 -7 -31 -16 -16 -15 -57 -28 -121 -41 -15 -3 -35 -14 -44 -24 -9 -10 -24 -19 -32 -19 -22 0 -80 -19 -127 -41 -22 -10 -63 -26 -92 -35 -29 -9 -57 -22 -64 -30 -6 -8 -19 -14 -28 -14 -21 0 -96 -27 -124 -44 -12 -7 -42 -18 -67 -25 -25 -7 -54 -18 -65 -24 -11 -6 -33 -17 -50 -25 -16 -8 -37 -20 -45 -27 -8 -6 -41 -20 -73 -30 -32 -9 -61 -24 -64 -31 -3 -8 -13 -14 -22 -14 -22 0 -86 -23 -103 -37 -7 -7 -36 -19 -63 -28 -28 -9 -61 -24 -75 -33 -14 -9 -47 -24 -74 -34 -27 -10 -56 -24 -66 -33 -9 -8 -24 -15 -33 -15 -9 0 -18 -4 -22 -9 -3 -5 -19 -12 -35 -16 -29 -6 -43 -35 -17 -35 17 0 220 87 257 111 8 5 22 12 30 15 65 25 97 39 110 49 8 6 40 19 70 29 30 9 61 22 70 29 8 7 40 21 70 32 30 10 81 33 112 51 32 18 84 41 116 50 31 10 64 23 72 29 8 6 35 17 60 25 25 7 55 19 68 27 13 8 51 23 85 34 55 17 89 31 149 60 10 5 26 9 37 9 10 0 29 8 42 19 13 10 35 21 49 24 77 18 103 27 119 41 10 9 23 16 30 16 18 0 112 29 141 44 14 7 54 21 89 31 36 9 74 23 85 30 12 7 50 20 86 30 36 9 72 23 80 29 8 7 40 18 70 25 30 7 73 21 95 31 22 10 69 25 105 35 36 9 74 23 85 29 11 7 52 21 90 31 39 9 78 21 88 27 10 5 53 18 95 29 42 11 82 25 89 30 6 6 49 19 95 30 45 11 92 26 103 33 11 7 34 16 50 19 79 15 131 30 146 43 8 8 24 14 35 14 10 0 33 7 49 16 17 9 72 27 123 39 51 13 98 27 105 32 6 5 50 18 97 28 47 10 94 24 105 30 11 7 47 18 80 24 33 7 83 21 110 31 28 10 82 26 120 35 39 9 86 22 105 29 36 14 105 31 175 42 22 3 49 12 60 19 11 6 34 14 50 17 90 17 151 31 160 38 10 8 106 33 175 45 19 4 49 12 65 19 17 8 71 21 120 31 50 9 104 23 120 31 17 7 72 20 123 28 51 9 101 20 112 26 10 5 65 19 122 30 57 11 119 26 138 34 19 8 78 21 130 30 52 9 111 23 130 30 35 14 199 46 233 46 10 0 28 6 40 14 12 7 42 16 67 20 107 15 292 59 350 84 14 6 75 18 135 28 61 9 121 21 135 27 14 5 48 13 75 17 174 25 212 33 232 46 12 8 35 14 50 14 32 0 126 16 208 36 74 19 125 28 240 44 50 7 99 17 110 23 11 6 47 14 80 18 139 17 231 32 249 41 18 10 49 15 236 39 47 6 99 17 115 24 17 7 53 15 80 18 152 15 262 30 278 39 11 5 87 18 170 29 84 10 175 25 202 33 28 9 115 22 195 31 80 9 168 22 195 30 28 8 122 21 210 30 88 9 178 22 200 30 22 7 72 16 110 19 160 13 322 34 340 43 11 6 56 13 100 17 156 13 334 34 347 42 7 4 51 11 98 15 236 19 338 32 367 45 40 18 165 30 462 44 129 6 238 13 243 16 5 3 174 12 376 19 202 8 464 19 582 26 238 13 1099 6 1305 -10 66 -5 250 -13 410 -16 159 -4 312 -11 340 -16 27 -5 169 -13 315 -19 392 -15 756 -36 770 -45 7 -4 87 -11 178 -15 241 -12 459 -29 522 -41 30 -6 109 -14 175 -19 240 -16 402 -31 470 -45 39 -8 160 -21 270 -30 110 -9 218 -23 240 -31 23 -8 63 -14 90 -14 74 0 323 -30 377 -46 26 -8 64 -14 85 -14 50 0 276 -28 333 -42 25 -6 77 -14 115 -18 130 -14 250 -32 300 -45 48 -13 165 -31 285 -42 30 -3 61 -10 68 -16 7 -5 47 -13 90 -17 102 -10 216 -29 277 -45 53 -15 244 -45 282 -45 12 0 37 -6 55 -14 18 -8 85 -22 148 -31 63 -9 138 -22 165 -30 45 -13 95 -22 235 -45 25 -4 59 -12 75 -18 17 -6 75 -18 130 -27 55 -9 116 -22 135 -30 37 -14 202 -45 239 -45 12 0 32 -6 44 -14 12 -8 45 -19 72 -24 28 -6 64 -15 80 -20 39 -14 174 -42 198 -42 10 0 28 -6 40 -12 20 -11 73 -24 187 -44 19 -3 49 -12 65 -19 17 -8 73 -21 125 -30 52 -9 111 -23 130 -30 19 -8 73 -21 120 -30 47 -9 99 -22 115 -30 31 -14 168 -45 196 -45 9 0 22 -7 29 -15 7 -8 23 -15 36 -15 35 0 186 -38 198 -50 5 -5 19 -10 30 -10 30 0 156 -29 191 -44 17 -7 66 -21 110 -31 44 -10 91 -24 105 -31 14 -6 59 -19 100 -29 41 -9 89 -23 105 -30 17 -8 62 -21 100 -30 39 -9 81 -23 95 -30 14 -7 63 -21 110 -30 47 -10 92 -23 100 -30 8 -6 51 -19 95 -30 44 -10 90 -24 101 -31 12 -7 55 -21 95 -30 41 -10 81 -23 89 -29 8 -7 26 -16 40 -20 14 -3 39 -12 55 -20 17 -7 59 -21 95 -31 36 -10 70 -21 76 -26 6 -5 49 -18 95 -29 46 -12 93 -26 104 -33 11 -7 52 -21 90 -31 39 -10 77 -23 85 -30 8 -6 47 -20 85 -30 39 -10 77 -23 85 -30 8 -7 47 -20 85 -29 39 -10 77 -23 85 -30 8 -7 47 -21 85 -31 39 -10 77 -23 85 -30 8 -7 31 -16 50 -20 51 -10 103 -27 120 -40 8 -7 47 -20 85 -30 39 -10 77 -23 85 -29 8 -7 42 -20 75 -31 33 -10 65 -22 70 -26 6 -4 42 -18 80 -30 39 -12 76 -27 83 -32 16 -12 111 -46 131 -47 8 0 19 -6 25 -14 6 -7 40 -21 76 -31 36 -9 72 -22 80 -29 8 -7 42 -20 75 -30 33 -10 67 -24 75 -30 8 -7 35 -18 60 -25 25 -7 64 -24 87 -37 23 -13 48 -24 56 -24 8 0 17 -6 20 -13 2 -7 31 -21 63 -31 33 -10 66 -24 74 -30 8 -7 40 -20 70 -30 30 -11 61 -24 69 -30 19 -15 80 -37 119 -43 24 -4 32 -2 32 10 0 10 -20 22 -52 32 -29 10 -60 23 -68 30 -8 7 -40 20 -70 30 -30 10 -62 23 -70 30 -8 7 -40 20 -70 30 -30 10 -62 23 -70 30 -8 7 -25 16 -37 19 -11 4 -27 13 -33 21 -7 8 -22 15 -34 15 -11 0 -46 13 -77 29 -31 16 -83 36 -115 46 -33 10 -66 23 -74 30 -15 12 -113 45 -133 45 -6 0 -18 6 -26 13 -9 8 -43 22 -76 32 -33 10 -69 23 -80 30 -11 6 -47 20 -80 30 -33 11 -67 24 -75 30 -8 7 -44 20 -80 30 -36 10 -72 24 -80 31 -8 7 -42 20 -75 30 -33 9 -69 22 -80 29 -11 7 -51 21 -90 30 -38 10 -77 24 -86 32 -8 7 -22 13 -30 13 -15 1 -92 27 -149 52 -19 9 -60 21 -90 29 -30 7 -62 18 -70 25 -8 6 -26 14 -40 17 -69 15 -117 31 -131 43 -8 8 -22 14 -30 14 -21 0 -125 34 -140 46 -8 6 -50 19 -94 29 -44 10 -87 25 -96 32 -8 7 -23 13 -33 13 -22 0 -114 28 -146 44 -14 7 -38 16 -55 20 -16 4 -37 13 -45 20 -8 7 -49 21 -90 30 -41 10 -80 22 -87 28 -6 5 -49 19 -95 30 -46 11 -94 26 -108 33 -14 7 -61 21 -105 31 -44 10 -87 24 -96 31 -8 7 -23 13 -31 13 -24 0 -140 31 -168 45 -14 6 -61 20 -105 30 -44 10 -91 24 -105 31 -14 7 -59 20 -100 29 -41 8 -91 22 -110 29 -41 16 -169 46 -198 46 -11 0 -25 7 -32 15 -7 8 -22 15 -34 15 -30 0 -175 37 -189 48 -7 5 -57 17 -112 27 -55 10 -107 24 -115 30 -8 6 -60 20 -115 30 -55 10 -109 24 -120 31 -11 6 -65 19 -120 29 -55 9 -113 23 -130 30 -28 12 -92 27 -193 44 -24 5 -48 13 -54 19 -7 7 -26 12 -42 12 -17 0 -56 7 -86 15 -30 8 -69 15 -86 15 -17 0 -37 6 -43 14 -7 8 -35 17 -64 21 -29 4 -59 13 -67 20 -8 7 -40 15 -70 19 -105 12 -197 31 -211 42 -8 6 -36 14 -64 17 -102 11 -191 28 -220 41 -16 8 -82 21 -145 31 -63 9 -131 23 -150 30 -19 7 -57 16 -85 19 -85 10 -219 34 -250 45 -16 5 -84 17 -150 27 -66 9 -131 21 -145 27 -14 6 -52 14 -85 18 -182 21 -253 33 -280 44 -16 7 -93 21 -170 30 -77 9 -160 22 -185 30 -25 7 -110 20 -190 30 -80 9 -163 21 -185 27 -22 5 -71 14 -110 18 -206 22 -283 32 -315 42 -19 5 -129 21 -245 33 -115 13 -232 28 -260 34 -27 5 -131 17 -230 26 -99 9 -202 21 -230 27 -51 11 -114 17 -390 37 -88 7 -178 17 -200 24 -22 6 -92 14 -155 17 -364 21 -512 33 -567 46 -34 8 -111 14 -170 14 -59 0 -145 4 -190 10 -46 5 -176 12 -290 15 -115 3 -251 12 -303 20 -52 8 -230 19 -395 25 -165 6 -343 15 -395 20 -82 8 -1852 12 -1920 4z"/>
 </g>

<g fill="#5c0d20" stroke="none">
 <path d="M11603 13638 c1 -47 -25 -357 -38 -453 -8 -55 -21 -192 -30 -305 -9 -113 -23 -257 -32 -320 -31 -223 -34 -246 -42 -355 -5 -60 -13 -135 -20 -165 -6 -30 -17 -116 -26 -190 -20 -188 -36 -316 -45 -375 -4 -27 -13 -86 -19 -130 -6 -44 -18 -123 -26 -175 -13 -86 -20 -137 -45 -355 -5 -38 -13 -88 -18 -110 -5 -22 -15 -80 -21 -130 -7 -49 -17 -112 -22 -140 -36 -191 -40 -218 -30 -228 13 -13 146 8 174 28 12 8 30 15 41 15 11 0 27 7 36 15 9 8 36 19 61 24 89 19 135 32 164 45 17 8 64 22 105 31 41 9 81 21 87 27 7 6 53 18 103 28 49 10 100 24 113 32 12 9 38 18 57 21 71 11 120 25 133 36 8 6 36 16 63 22 27 5 66 14 87 18 21 5 53 15 70 24 18 8 65 23 106 32 41 9 86 22 100 29 14 7 58 18 96 25 39 7 88 21 110 31 22 10 74 26 115 35 41 9 84 22 95 29 11 7 36 16 55 19 100 19 135 28 149 41 9 7 32 16 51 19 72 11 133 27 147 39 8 6 33 15 56 19 90 17 130 27 160 42 18 8 66 23 107 32 41 9 83 21 93 26 20 11 100 33 158 43 21 4 42 13 49 21 7 8 22 15 33 15 11 0 39 8 61 19 23 10 75 26 116 35 41 10 86 24 100 31 14 8 63 21 109 30 47 8 91 21 99 28 16 13 110 35 153 36 15 1 38 10 51 21 15 11 60 25 109 34 46 8 88 21 94 29 5 8 24 16 40 20 17 3 56 10 89 16 32 6 64 16 72 22 8 6 31 15 52 19 20 5 60 13 88 18 27 6 63 17 80 26 16 8 56 20 89 26 33 7 76 19 95 27 40 17 133 43 157 43 9 0 34 9 57 19 23 11 68 25 101 31 33 7 78 21 100 30 49 21 125 40 164 40 15 0 39 8 52 19 13 10 40 21 59 24 73 12 133 27 147 38 7 7 31 16 53 20 22 5 58 13 81 18 22 5 55 15 72 24 18 8 59 21 92 27 33 7 76 19 95 27 36 16 76 27 164 43 27 5 56 16 66 25 9 8 25 15 35 15 10 0 36 9 59 19 23 11 68 24 101 31 33 6 78 20 100 30 42 19 123 40 153 40 9 0 31 7 47 16 29 16 51 23 149 43 27 6 55 16 62 22 7 6 54 19 105 30 50 10 98 24 105 30 7 6 54 19 105 30 50 10 98 24 106 30 7 7 30 15 51 20 20 4 56 12 80 17 24 5 58 16 75 25 18 8 59 21 92 27 33 6 78 20 100 30 22 11 72 24 110 31 39 7 88 20 110 30 22 9 67 23 100 29 33 7 78 21 100 30 22 10 67 23 100 30 33 6 78 20 100 30 22 10 54 21 70 24 70 12 118 24 148 39 34 16 116 37 144 37 8 0 34 9 57 19 23 11 68 24 101 31 33 6 77 20 97 31 20 10 45 19 54 19 9 0 35 9 58 19 23 10 75 27 116 36 41 9 81 21 88 27 7 6 29 14 50 19 20 4 59 13 86 18 27 6 55 16 63 23 8 6 33 15 56 19 97 16 151 30 164 40 7 7 30 15 51 20 20 4 59 13 86 18 27 6 55 16 63 22 7 7 30 15 51 20 79 17 126 30 151 44 14 7 62 21 106 31 44 9 85 21 91 26 12 9 93 31 159 43 22 4 51 13 65 20 14 7 57 20 95 29 39 9 84 23 100 31 17 7 64 21 105 30 41 8 89 22 105 29 17 8 62 21 100 30 39 9 84 23 100 31 17 7 66 21 110 30 44 9 87 20 95 26 22 14 28 15 115 34 44 10 85 22 92 27 7 5 55 20 108 33 52 12 101 27 108 33 6 5 26 12 42 15 134 25 165 36 165 58 0 5 -2411 9 -5639 9 l-5639 0 1 -22z"/>
 </g>

<g fill="#d02035" stroke="none">
 <path d="M1772 13593 c-7 -38 -15 -90 -17 -118 -3 -27 -10 -75 -16 -105 -5 -30 -17 -91 -25 -135 -8 -44 -20 -95 -26 -113 -5 -19 -8 -36 -5 -38 4 -4 -8 -62 -34 -169 -5 -22 -12 -62 -14 -89 -5 -72 -26 -175 -36 -182 -5 -3 -9 -24 -9 -47 0 -23 -7 -64 -15 -90 -8 -26 -14 -63 -13 -80 1 -18 -5 -44 -12 -57 -15 -27 -28 -87 -36 -165 -2 -27 -13 -81 -24 -120 -10 -38 -24 -104 -30 -145 -14 -91 -24 -138 -45 -210 -8 -30 -20 -84 -26 -120 -5 -35 -14 -69 -18 -75 -10 -12 -41 -164 -41 -198 0 -12 -9 -38 -19 -58 -11 -20 -25 -74 -32 -120 -7 -46 -20 -100 -30 -119 -10 -19 -20 -53 -23 -75 -14 -93 -23 -135 -36 -150 -8 -9 -17 -38 -21 -63 -10 -59 -38 -171 -50 -197 -5 -11 -13 -43 -18 -71 -6 -28 -19 -77 -30 -110 -10 -32 -25 -84 -31 -114 -17 -75 -37 -134 -61 -182 -5 -10 -9 -29 -9 -44 0 -22 -21 -95 -61 -209 -5 -16 -24 -70 -40 -120 -17 -49 -35 -99 -39 -110 -5 -11 -17 -49 -26 -85 -9 -36 -23 -72 -29 -80 -7 -8 -16 -34 -20 -57 -4 -24 -10 -45 -15 -48 -5 -3 -11 -24 -15 -47 -4 -23 -16 -62 -26 -86 -11 -24 -19 -51 -19 -59 0 -8 -11 -37 -25 -65 -14 -27 -25 -58 -25 -68 0 -9 -7 -23 -15 -30 -8 -7 -15 -19 -15 -28 0 -8 -20 -66 -45 -129 -25 -62 -45 -120 -45 -129 0 -9 -9 -27 -20 -41 -11 -14 -20 -34 -20 -43 0 -38 -84 -268 -104 -284 -7 -6 -19 -33 -26 -61 -7 -27 -16 -54 -20 -60 -3 -5 -19 -41 -35 -80 -16 -38 -37 -81 -47 -94 -10 -13 -18 -30 -18 -37 0 -13 -26 -75 -56 -137 -8 -16 -14 -34 -14 -40 0 -6 -6 -18 -13 -26 -7 -9 -24 -43 -37 -76 -13 -33 -34 -75 -47 -94 -13 -19 -23 -44 -23 -57 0 -15 -6 -24 -15 -24 -12 0 -15 -16 -15 -80 0 -73 2 -80 19 -80 11 0 23 5 26 10 3 6 14 10 24 10 10 0 29 8 42 18 13 11 47 27 74 37 28 10 55 23 60 29 6 6 35 20 65 30 30 10 62 24 70 31 8 7 40 20 70 30 30 10 62 23 70 29 8 7 40 20 70 31 30 10 66 27 79 37 13 10 28 18 34 18 6 0 18 6 26 14 9 7 43 21 76 31 33 10 67 23 75 30 8 6 44 20 80 30 36 10 72 24 80 30 8 6 35 17 60 25 25 7 56 20 70 29 29 18 127 51 153 51 10 0 20 7 23 15 4 8 13 15 21 15 24 0 117 32 134 46 8 8 21 14 28 14 23 0 116 33 132 46 8 8 23 14 33 14 22 0 116 28 136 41 20 12 25 14 95 34 33 10 67 23 75 30 8 7 49 20 90 30 41 9 82 23 90 29 8 7 47 21 85 31 39 9 79 23 90 30 12 7 54 21 95 30 41 10 80 23 85 30 6 7 26 15 45 18 67 10 135 29 150 41 8 7 51 21 95 31 44 10 87 24 95 30 8 6 51 20 95 30 44 10 87 25 96 32 8 7 22 13 30 13 8 0 28 7 44 16 17 9 46 20 65 25 124 30 148 36 170 46 14 6 59 19 100 28 41 10 86 24 100 30 14 7 61 21 105 30 44 10 86 22 93 28 7 6 32 14 55 18 66 12 152 35 168 45 12 8 73 23 164 41 17 3 36 10 43 16 7 6 37 14 65 19 95 15 166 33 179 46 6 6 21 12 32 12 40 0 181 34 197 47 8 7 26 13 38 13 31 0 152 29 176 43 11 6 40 14 65 18 25 4 79 13 120 19 41 7 82 19 91 26 8 8 24 14 35 14 36 0 196 38 207 49 6 6 22 11 36 11 42 0 185 30 213 46 14 7 37 14 50 14 32 0 204 36 220 46 7 5 36 11 63 15 104 14 181 31 207 45 14 8 48 17 75 21 26 3 57 12 68 19 11 8 36 14 57 14 20 0 48 4 61 9 13 5 51 12 83 16 33 3 68 12 79 19 11 7 43 16 70 19 129 14 221 31 236 43 8 8 29 14 45 14 53 1 245 37 257 49 6 6 22 11 37 11 47 0 235 32 255 43 11 6 49 14 85 18 131 13 236 30 260 43 14 7 54 16 90 20 112 11 240 33 253 44 6 5 37 12 67 14 123 10 257 31 282 44 14 8 46 14 70 14 23 0 78 7 121 15 43 8 97 15 120 15 23 0 51 7 61 15 11 8 34 15 50 15 52 0 279 30 311 42 17 6 62 14 100 18 216 22 294 33 328 46 20 8 59 14 85 14 27 0 73 4 103 10 30 5 86 12 125 14 39 3 84 11 100 18 16 6 65 15 109 18 175 15 311 32 340 42 17 6 71 14 120 18 50 5 146 13 215 20 190 17 299 57 205 74 -19 4 -39 15 -44 24 -5 10 -70 49 -145 88 -190 98 -214 110 -244 131 -40 27 -193 103 -207 103 -7 0 -18 6 -24 14 -6 7 -33 21 -59 31 -26 10 -56 26 -68 36 -11 11 -26 19 -34 19 -12 0 -160 68 -200 92 -8 4 -35 18 -60 29 -25 11 -65 31 -90 44 -25 12 -56 26 -70 30 -14 4 -36 15 -50 25 -14 9 -43 23 -65 30 -22 7 -51 21 -64 31 -13 11 -29 19 -37 19 -7 0 -25 6 -41 14 -15 8 -51 26 -79 40 -29 14 -57 26 -63 26 -6 0 -33 16 -61 35 -27 19 -61 37 -77 41 -15 4 -65 24 -111 45 -46 22 -86 39 -90 39 -4 0 -34 14 -67 30 -33 16 -68 30 -77 30 -9 0 -19 4 -22 9 -3 4 -34 19 -68 31 -35 13 -75 32 -90 42 -14 10 -33 18 -41 18 -9 0 -19 5 -22 10 -3 6 -19 10 -35 10 -15 0 -30 6 -33 14 -3 7 -18 17 -34 20 -15 4 -62 22 -103 40 -41 18 -88 36 -105 40 -16 4 -37 14 -45 21 -14 13 -39 23 -210 84 -41 14 -102 39 -135 55 -33 16 -102 44 -153 62 -51 17 -98 36 -105 42 -7 5 -39 18 -72 28 -33 10 -67 23 -75 29 -13 11 -59 26 -130 42 -14 4 -29 12 -35 18 -5 6 -39 20 -75 30 -36 10 -76 25 -90 35 -14 9 -37 21 -50 25 -14 4 -32 13 -40 20 -8 6 -40 17 -70 24 -30 6 -68 20 -85 31 -16 11 -38 20 -48 20 -9 0 -25 4 -35 9 -27 15 -123 49 -170 61 -23 6 -57 19 -75 29 -17 11 -59 25 -92 32 -33 7 -67 18 -75 25 -8 7 -42 20 -75 30 -33 9 -69 22 -80 29 -11 7 -47 20 -80 30 -33 9 -73 23 -90 30 -16 7 -57 20 -90 30 -33 9 -72 23 -86 30 -14 8 -62 23 -107 35 -46 12 -95 28 -110 36 -15 7 -34 14 -42 14 -16 0 -79 21 -95 32 -5 3 -48 18 -95 32 -47 14 -119 37 -160 51 -41 14 -81 25 -90 25 -8 0 -28 9 -45 20 -16 11 -39 20 -51 20 -11 0 -65 16 -120 35 -54 19 -110 35 -124 35 -14 0 -41 8 -60 18 -19 11 -48 22 -64 26 -15 4 -40 15 -55 26 -14 10 -48 21 -76 25 -27 4 -66 14 -85 22 -34 15 -152 53 -290 93 -36 11 -77 20 -91 20 -15 0 -32 6 -38 14 -6 8 -33 17 -59 21 -25 4 -86 20 -134 36 -48 16 -113 34 -144 40 -32 6 -73 19 -93 30 -20 10 -44 19 -55 19 -24 0 -92 19 -134 37 -18 8 -56 18 -85 23 -82 15 -126 27 -141 39 -8 7 -51 19 -97 27 -46 9 -101 25 -121 35 -21 10 -50 19 -65 19 -32 0 -124 23 -145 36 -20 13 -139 43 -173 43 -17 1 -36 6 -41 11 -12 12 -163 50 -196 50 -12 0 -29 6 -37 13 -16 14 -168 47 -212 47 -12 0 -30 7 -40 16 -10 9 -60 22 -121 31 -57 9 -110 21 -118 28 -8 7 -62 23 -120 35 -58 11 -109 25 -114 31 -6 5 -28 9 -51 9 l-41 0 -12 -67z m4141 -4280 c-7 -2 -19 -2 -25 0 -7 3 -2 5 12 5 14 0 19 -2 13 -5z"/>
 </g>

<g fill="#949597" stroke="none">
 <path d="M22866 13645 c-3 -8 -17 -15 -31 -15 -35 0 -113 -19 -160 -40 -22 -9 -67 -23 -100 -29 -33 -7 -80 -21 -105 -31 -25 -10 -72 -23 -105 -30 -33 -6 -73 -18 -89 -26 -17 -9 -53 -20 -80 -26 -28 -5 -68 -13 -88 -18 -21 -4 -43 -12 -51 -18 -7 -6 -46 -18 -87 -27 -41 -9 -95 -24 -120 -35 -25 -10 -72 -24 -105 -31 -33 -6 -78 -20 -100 -29 -22 -10 -67 -23 -100 -30 -33 -7 -78 -20 -100 -29 -22 -10 -71 -23 -110 -30 -38 -7 -88 -20 -110 -31 -22 -10 -67 -24 -100 -30 -33 -6 -74 -18 -91 -26 -17 -9 -47 -20 -67 -25 -21 -5 -53 -13 -74 -18 -20 -5 -50 -16 -67 -25 -17 -8 -65 -22 -106 -31 -41 -9 -81 -21 -88 -27 -12 -10 -24 -13 -146 -38 -33 -6 -69 -17 -80 -24 -12 -8 -50 -19 -86 -26 -36 -7 -83 -21 -105 -30 -22 -10 -74 -26 -115 -35 -41 -9 -86 -22 -100 -30 -46 -24 -134 -53 -210 -71 -41 -9 -84 -23 -95 -31 -11 -7 -29 -13 -41 -13 -33 0 -146 -30 -169 -44 -11 -7 -36 -16 -55 -19 -99 -19 -135 -28 -149 -40 -9 -8 -47 -19 -86 -26 -38 -7 -88 -21 -110 -31 -22 -10 -67 -24 -100 -30 -33 -7 -78 -21 -100 -30 -46 -20 -125 -40 -158 -40 -12 0 -35 -7 -52 -16 -16 -9 -67 -25 -113 -35 -46 -11 -93 -25 -105 -33 -12 -8 -53 -19 -92 -27 -38 -7 -86 -20 -105 -30 -19 -9 -71 -25 -115 -34 -44 -10 -85 -22 -92 -27 -13 -10 -53 -21 -138 -38 -27 -6 -63 -16 -80 -24 -16 -8 -57 -20 -90 -27 -33 -6 -78 -20 -100 -30 -22 -9 -76 -25 -120 -35 -44 -9 -85 -21 -91 -26 -14 -10 -117 -38 -142 -38 -10 0 -34 -9 -55 -20 -20 -11 -43 -20 -50 -20 -7 0 -29 -9 -50 -20 -20 -11 -46 -20 -56 -20 -26 0 -141 -30 -166 -43 -19 -10 -35 -14 -139 -37 -27 -5 -57 -17 -66 -25 -9 -8 -26 -15 -38 -15 -29 0 -130 -27 -167 -44 -16 -8 -64 -22 -105 -31 -41 -9 -84 -22 -95 -29 -11 -8 -38 -16 -60 -19 -70 -9 -137 -27 -152 -38 -7 -7 -32 -16 -56 -21 -23 -5 -59 -13 -80 -17 -21 -5 -53 -15 -70 -24 -18 -8 -66 -23 -107 -32 -41 -9 -83 -21 -95 -28 -19 -10 -34 -14 -139 -36 -27 -6 -55 -16 -62 -22 -7 -6 -54 -19 -105 -30 -50 -10 -98 -24 -105 -30 -15 -12 -136 -39 -176 -39 -15 0 -33 -8 -40 -19 -12 -17 -35 -24 -133 -37 -22 -4 -49 -14 -60 -24 -11 -10 -60 -25 -110 -35 -49 -9 -97 -23 -105 -30 -8 -7 -31 -15 -50 -19 -93 -16 -138 -27 -165 -41 -16 -8 -65 -22 -107 -31 -42 -9 -82 -22 -89 -30 -6 -8 -21 -14 -32 -14 -11 0 -38 -9 -61 -19 -23 -10 -75 -27 -116 -36 -41 -9 -79 -20 -85 -25 -11 -9 -129 -40 -152 -40 -9 0 -34 -8 -57 -19 -42 -19 -123 -41 -153 -41 -8 0 -34 -9 -57 -19 -23 -11 -68 -25 -101 -31 -33 -7 -78 -21 -100 -30 -22 -10 -74 -25 -115 -34 -41 -9 -88 -23 -105 -31 -16 -7 -64 -21 -105 -30 -41 -9 -81 -21 -88 -27 -12 -10 -48 -20 -144 -38 -25 -5 -59 -15 -75 -22 -15 -8 -64 -23 -108 -32 -44 -10 -87 -24 -95 -30 -8 -7 -46 -18 -85 -25 -38 -7 -83 -20 -100 -28 -16 -9 -48 -19 -70 -24 -96 -19 -141 -32 -156 -45 -8 -8 -25 -14 -36 -14 -30 0 -142 -28 -178 -45 -16 -7 -57 -19 -90 -26 -33 -6 -78 -20 -100 -29 -22 -10 -67 -23 -100 -30 -33 -6 -78 -20 -100 -30 -61 -27 -154 -57 -220 -69 -33 -7 -78 -17 -100 -23 -22 -6 -66 -13 -97 -15 -41 -3 -58 -9 -58 -19 0 -19 80 -19 146 0 100 30 233 48 399 56 94 4 184 13 200 19 17 5 161 15 320 21 160 7 331 15 380 20 125 11 1848 12 1965 0 52 -5 230 -14 395 -20 165 -6 343 -17 395 -25 52 -8 188 -17 303 -20 114 -3 244 -10 290 -15 45 -6 131 -10 190 -10 59 0 136 -6 170 -14 56 -13 131 -19 567 -46 69 -4 138 -12 153 -19 16 -6 56 -11 90 -11 34 0 121 -7 192 -15 72 -8 150 -15 175 -15 25 0 77 -6 115 -14 39 -8 151 -22 250 -31 99 -9 203 -21 230 -26 28 -6 145 -21 260 -34 116 -12 226 -28 245 -33 32 -10 109 -20 315 -42 39 -4 88 -13 110 -18 22 -6 105 -18 185 -27 80 -10 165 -23 190 -30 25 -8 108 -21 185 -30 77 -9 154 -23 170 -30 27 -11 98 -23 280 -44 33 -4 71 -12 85 -18 14 -6 79 -18 145 -27 66 -10 134 -22 150 -27 31 -11 165 -35 250 -45 28 -3 66 -12 85 -19 19 -7 87 -21 150 -30 63 -10 129 -23 145 -31 29 -13 118 -30 220 -41 28 -3 56 -11 64 -17 14 -11 106 -30 211 -42 30 -4 62 -12 70 -19 8 -7 38 -16 67 -20 29 -4 57 -13 64 -21 6 -8 26 -14 43 -14 17 0 56 -7 86 -15 30 -8 69 -15 86 -15 16 0 35 -5 42 -12 6 -6 30 -14 54 -19 101 -17 165 -32 193 -44 17 -7 75 -21 130 -30 55 -10 109 -23 120 -29 11 -7 65 -21 120 -31 55 -10 107 -24 115 -30 8 -6 60 -20 115 -30 55 -10 105 -22 112 -27 14 -11 159 -48 189 -48 12 0 27 -7 34 -15 7 -8 21 -15 32 -15 29 0 157 -30 198 -46 19 -7 69 -21 110 -29 41 -9 86 -22 100 -29 14 -7 61 -21 105 -31 44 -10 91 -24 105 -30 28 -14 144 -45 168 -45 8 0 23 -6 31 -13 9 -7 52 -21 96 -31 44 -10 91 -24 105 -31 14 -7 62 -22 108 -33 46 -11 89 -25 95 -30 7 -6 46 -18 87 -28 41 -9 82 -23 90 -30 8 -7 29 -16 45 -20 17 -4 41 -13 55 -20 32 -16 124 -44 146 -44 10 0 25 -6 33 -13 9 -7 52 -22 96 -32 44 -10 86 -23 94 -29 15 -12 119 -46 140 -46 8 0 22 -6 30 -14 14 -12 62 -28 131 -43 14 -3 32 -11 40 -17 8 -7 40 -18 70 -25 30 -8 71 -20 90 -29 57 -25 134 -51 149 -52 8 0 22 -6 30 -13 9 -8 48 -22 86 -32 39 -9 79 -23 90 -30 11 -7 47 -20 80 -29 33 -10 67 -23 75 -30 8 -7 44 -21 80 -31 36 -10 72 -23 80 -30 8 -6 42 -19 75 -30 33 -10 69 -24 80 -30 11 -7 47 -20 80 -30 33 -10 67 -24 76 -32 8 -7 20 -13 26 -13 20 0 118 -33 133 -45 8 -7 41 -20 74 -30 32 -10 84 -30 115 -46 31 -16 66 -29 77 -29 12 0 27 -7 34 -15 6 -8 22 -17 33 -21 12 -3 29 -12 37 -19 8 -7 39 -20 67 -29 29 -10 55 -21 58 -26 3 -5 36 -18 73 -31 37 -12 74 -27 82 -34 12 -10 103 -45 117 -45 11 0 0 46 -16 68 -10 15 -26 44 -34 65 -9 20 -21 37 -26 37 -6 0 -11 8 -11 18 0 10 -13 33 -30 52 -16 19 -29 39 -30 43 0 13 -76 130 -99 153 -12 12 -21 25 -21 30 0 18 -195 299 -224 323 -9 8 -16 18 -16 24 0 6 -11 22 -24 36 -13 15 -33 43 -44 64 -11 21 -30 48 -41 60 -51 53 -81 91 -87 110 -6 18 -40 67 -86 122 -9 11 -32 38 -50 60 -18 22 -41 49 -51 60 -69 77 -87 99 -87 106 0 5 -12 23 -27 40 -16 17 -41 47 -58 67 -16 19 -41 47 -55 61 -14 14 -33 37 -42 51 -8 14 -38 50 -64 82 -27 31 -74 87 -104 124 -30 37 -85 102 -123 143 -37 42 -89 100 -115 129 -26 30 -107 115 -181 190 -73 76 -199 205 -280 287 -80 83 -165 170 -187 195 -23 25 -95 95 -160 155 -65 61 -135 127 -156 148 -20 20 -42 37 -47 37 -6 0 -18 8 -28 18 -10 10 -56 51 -103 92 -47 41 -92 83 -100 92 -8 9 -53 49 -100 88 -47 39 -101 84 -120 100 -19 17 -40 30 -46 30 -6 0 -17 11 -24 25 -8 14 -29 37 -48 51 -18 15 -46 38 -62 53 -68 64 -164 138 -191 146 -17 6 -41 25 -105 85 -12 11 -25 20 -29 20 -4 0 -39 24 -79 54 -39 30 -93 72 -121 93 -27 21 -61 46 -75 56 -14 10 -43 31 -65 47 -33 25 -133 94 -196 135 -46 30 -127 87 -149 104 -14 11 -29 21 -34 21 -5 0 -27 15 -50 33 -38 31 -99 71 -164 107 -15 9 -47 30 -71 48 -24 18 -48 32 -52 32 -4 0 -45 25 -90 55 -45 30 -87 55 -92 55 -6 0 -20 8 -31 18 -12 10 -37 25 -56 32 -19 7 -40 19 -46 26 -11 13 -201 114 -215 114 -4 0 -31 16 -61 35 -29 19 -107 63 -173 96 -66 34 -131 67 -145 74 -14 8 -70 35 -124 61 -55 25 -122 62 -149 80 -27 19 -53 34 -59 34 -15 0 -96 39 -103 50 -3 5 -16 10 -29 10 -12 0 -44 10 -72 23 -90 43 -125 57 -138 57 -8 0 -16 7 -20 15 -3 8 -13 15 -22 15 -9 0 -44 10 -78 22 l-61 22 44 8 c24 4 51 14 60 22 9 7 32 16 51 19 92 15 130 25 145 37 9 8 38 17 63 21 66 10 134 28 147 39 11 9 65 24 150 42 28 5 57 16 66 24 8 8 25 14 36 14 34 0 146 31 168 46 11 8 36 14 57 14 20 0 40 5 43 10 3 6 18 10 33 10 15 0 38 7 51 17 24 16 66 28 152 42 26 4 57 14 70 23 13 8 40 18 59 21 84 14 127 25 155 40 32 16 112 37 144 37 10 0 29 8 42 19 13 10 42 21 64 24 120 18 149 25 161 42 21 28 17 35 -20 35 -21 0 -36 -6 -40 -15z"/>
 <path d="M10853 10163 c-22 -3 -33 -10 -33 -20 0 -13 8 -15 46 -9 26 3 53 6 60 6 8 0 14 7 14 15 0 15 -16 17 -87 8z"/>
 <path d="M10640 10135 c-19 -7 -54 -14 -77 -14 -31 -1 -43 -5 -43 -16 0 -20 46 -20 143 2 47 11 77 22 77 30 0 17 -54 16 -100 -2z"/>
 <path d="M10388 10103 c-17 -3 -28 -11 -28 -20 0 -12 8 -14 38 -9 20 3 45 6 55 6 9 0 17 7 17 15 0 15 -21 17 -82 8z"/>
 <path d="M10185 10075 c-16 -8 -40 -14 -52 -15 -24 0 -33 -30 -10 -30 38 -1 167 36 167 47 0 17 -66 16 -105 -2z"/>
 <path d="M10060 10045 c0 -8 5 -15 10 -15 6 0 10 7 10 15 0 8 -4 15 -10 15 -5 0 -10 -7 -10 -15z"/>
 <path d="M9953 10043 c-34 -4 -48 -33 -15 -33 45 0 92 14 92 26 0 14 -12 15 -77 7z"/>
 <path d="M9761 10015 c-18 -8 -51 -15 -72 -15 -28 0 -39 -4 -39 -15 0 -20 70 -20 125 0 22 8 48 15 58 15 9 0 17 7 17 15 0 19 -44 19 -89 0z"/>
 <path d="M9528 9983 c-30 -5 -39 -33 -10 -33 45 0 92 14 92 26 0 14 -23 16 -82 7z"/>
 <path d="M9350 9955 c-14 -8 -44 -14 -67 -15 -31 0 -43 -4 -43 -15 0 -11 11 -15 36 -15 53 0 164 32 164 47 0 18 -58 16 -90 -2z"/>
 <path d="M9133 9923 c-34 -4 -48 -33 -15 -33 45 0 92 14 92 26 0 14 -12 15 -77 7z"/>
 <path d="M8974 9895 c-10 -8 -36 -15 -57 -15 -76 0 -177 -22 -177 -38 0 -11 8 -13 38 -8 20 4 64 9 97 12 77 7 175 35 175 52 0 17 -52 15 -76 -3z"/>
 <path d="M8604 9835 c-10 -8 -40 -15 -66 -15 -36 0 -48 -4 -48 -15 0 -11 11 -15 42 -15 52 0 148 31 148 48 0 17 -52 15 -76 -3z"/>
 <path d="M8398 9803 c-28 -4 -40 -33 -14 -33 36 0 76 14 76 26 0 14 -9 15 -62 7z"/>
 <path d="M8240 9774 c-14 -7 -37 -14 -52 -14 -18 0 -28 -5 -28 -15 0 -9 9 -15 22 -15 39 0 138 34 138 47 0 17 -48 15 -80 -3z"/>
 <path d="M8058 9743 c-28 -4 -40 -33 -14 -33 36 0 76 14 76 26 0 14 -9 15 -62 7z"/>
 <path d="M7914 9715 c-10 -8 -34 -15 -51 -15 -23 0 -33 -5 -33 -15 0 -20 55 -20 94 0 15 8 35 15 42 15 8 0 14 7 14 15 0 19 -40 20 -66 0z"/>
 <path d="M7733 9683 c-13 -2 -23 -11 -23 -20 0 -12 7 -14 31 -9 17 3 35 6 40 6 5 0 9 7 9 15 0 15 -13 17 -57 8z"/>
 <path d="M7574 9655 c-10 -8 -34 -15 -51 -15 -23 0 -33 -5 -33 -15 0 -10 10 -15 28 -15 39 0 122 32 122 47 0 18 -42 17 -66 -2z"/>
 <path d="M7398 9623 c-28 -4 -40 -33 -14 -33 36 0 76 14 76 26 0 14 -9 15 -62 7z"/>
 <path d="M7266 9595 c-11 -8 -32 -15 -48 -15 -18 0 -28 -5 -28 -15 0 -9 9 -15 23 -15 35 0 117 33 117 47 0 17 -40 16 -64 -2z"/>
 <path d="M7098 9563 c-30 -5 -39 -33 -10 -33 33 0 62 12 62 26 0 8 -6 13 -12 13 -7 -1 -25 -4 -40 -6z"/>
 <path d="M6970 9535 c-7 -8 -28 -15 -46 -15 -24 0 -34 -5 -34 -15 0 -20 59 -20 86 0 10 8 27 15 37 15 27 0 21 30 -7 30 -13 0 -29 -7 -36 -15z"/>
 <path d="M6798 9503 c-28 -4 -40 -33 -14 -33 36 0 76 14 76 26 0 14 -9 15 -62 7z"/>
 <path d="M6666 9475 c-11 -8 -30 -15 -43 -15 -14 0 -23 -6 -23 -15 0 -19 36 -19 74 0 15 8 35 15 42 15 8 0 14 7 14 15 0 19 -39 19 -64 0z"/>
 <path d="M6508 9443 c-17 -4 -26 -33 -10 -33 22 0 82 22 82 30 0 10 -40 12 -72 3z"/>
 <path d="M6385 9416 c-11 -7 -42 -16 -69 -20 -27 -3 -60 -13 -72 -21 -13 -8 -35 -15 -49 -15 -16 0 -25 -6 -25 -15 0 -21 39 -19 91 5 24 11 56 20 71 20 37 0 108 31 108 47 0 17 -30 17 -55 -1z"/>
 <path d="M6098 9343 c-10 -2 -18 -11 -18 -20 0 -11 6 -14 23 -9 12 3 28 6 35 6 6 0 12 7 12 15 0 15 -17 17 -52 8z"/>
 <path d="M5970 9315 c-14 -8 -37 -14 -52 -15 -18 0 -28 -5 -28 -15 0 -21 50 -19 100 2 41 18 54 43 23 43 -10 -1 -29 -7 -43 -15z"/>
 <path d="M5823 9283 c-24 -5 -33 -33 -10 -33 29 0 57 13 57 26 0 14 -6 15 -47 7z"/>
 <path d="M5704 9255 c-10 -8 -29 -15 -41 -15 -14 0 -23 -6 -23 -15 0 -8 9 -15 20 -15 32 0 100 31 100 46 0 18 -31 18 -56 -1z"/>
 <path d="M5563 9223 c-13 -2 -23 -11 -23 -20 0 -12 7 -14 31 -9 17 3 35 6 40 6 5 0 9 7 9 15 0 15 -13 17 -57 8z"/>
 <path d="M5446 9195 c-11 -8 -30 -15 -43 -15 -14 0 -23 -6 -23 -15 0 -8 9 -15 20 -15 32 0 100 31 100 46 0 18 -30 17 -54 -1z"/>
 <path d="M5313 9163 c-24 -5 -33 -33 -10 -33 29 0 57 13 57 26 0 14 -6 15 -47 7z"/>
 <path d="M5210 9135 c-7 -8 -25 -15 -41 -15 -19 0 -29 -5 -29 -15 0 -9 9 -15 25 -15 32 0 94 31 95 48 0 17 -35 15 -50 -3z"/>
 <path d="M5058 9103 c-10 -2 -18 -11 -18 -20 0 -12 7 -14 31 -9 17 3 35 6 40 6 5 0 9 7 9 15 0 15 -25 18 -62 8z"/>
 <path d="M4945 9077 c-11 -8 -48 -20 -82 -27 -43 -9 -63 -17 -63 -28 0 -11 7 -13 28 -8 15 3 43 9 62 12 52 8 110 35 110 51 0 17 -30 17 -55 0z"/>
 <path d="M4720 9015 c-7 -8 -23 -15 -36 -15 -15 0 -24 -6 -24 -15 0 -9 9 -15 21 -15 27 0 79 31 79 47 0 18 -25 16 -40 -2z"/>
 <path d="M4593 8983 c-24 -5 -33 -33 -10 -33 29 0 57 13 57 26 0 14 -6 15 -47 7z"/>
 <path d="M4490 8955 c-7 -8 -21 -15 -32 -15 -42 0 -108 -23 -108 -37 0 -12 6 -13 28 -8 15 4 45 11 67 15 46 7 85 29 85 47 0 18 -25 16 -40 -2z"/>
 <path d="M4255 8896 c-11 -7 -35 -16 -52 -20 -18 -3 -46 -9 -63 -12 -31 -7 -42 -34 -13 -34 41 0 193 52 193 67 0 17 -40 17 -65 -1z"/>
 <path d="M4036 8835 c-11 -8 -28 -15 -38 -15 -10 0 -18 -7 -18 -15 0 -8 9 -15 20 -15 27 0 89 33 90 48 0 16 -30 15 -54 -3z"/>
 <path d="M3923 8803 c-7 -2 -13 -12 -13 -20 0 -10 6 -13 16 -9 9 3 20 6 25 6 5 0 9 7 9 15 0 15 -14 18 -37 8z"/>
 <path d="M3824 8775 c-10 -8 -27 -15 -36 -15 -22 0 -24 -30 -3 -30 25 0 85 33 85 47 0 17 -21 17 -46 -2z"/>
 <path d="M3713 8743 c-25 -5 -32 -33 -9 -33 25 0 46 12 46 26 0 8 -3 13 -7 13 -5 -1 -18 -4 -30 -6z"/>
 <path d="M3618 8716 c-10 -7 -42 -18 -73 -25 -35 -8 -55 -18 -55 -27 0 -17 -5 -17 71 2 70 18 99 33 99 51 0 17 -20 16 -42 -1z"/>
 <path d="M3414 8655 c-10 -8 -28 -15 -39 -15 -42 -1 -95 -21 -95 -37 0 -11 6 -14 23 -8 12 4 43 10 68 15 53 10 89 29 89 47 0 17 -22 16 -46 -2z"/>
 <path d="M3190 8589 c-19 -10 -41 -19 -49 -19 -8 0 -22 -6 -30 -13 -9 -8 -42 -19 -73 -26 -40 -9 -58 -17 -58 -28 0 -12 6 -13 28 -8 15 4 43 11 63 15 20 4 47 14 60 23 13 10 32 17 42 17 26 0 77 31 77 47 0 18 -19 15 -60 -8z"/>
 <path d="M2920 8497 c-8 -8 -41 -19 -72 -26 -40 -9 -58 -17 -58 -28 0 -12 6 -13 28 -8 15 4 44 11 64 15 42 8 68 26 68 46 0 18 -12 18 -30 1z"/>
 <path d="M2730 8435 c-7 -8 -21 -15 -31 -15 -11 0 -19 -7 -19 -15 0 -8 7 -15 16 -15 23 0 74 32 74 47 0 18 -25 16 -40 -2z"/>
 <path d="M2623 8403 c-15 -5 -18 -33 -4 -33 21 0 41 13 41 26 0 14 -14 17 -37 7z"/>
 <path d="M2530 8375 c-7 -8 -19 -15 -26 -15 -8 0 -14 -7 -14 -15 0 -8 8 -15 18 -15 20 1 62 33 62 49 0 16 -26 13 -40 -4z"/>
 <path d="M2428 8343 c-21 -5 -24 -33 -4 -33 25 0 46 12 46 26 0 14 -10 16 -42 7z"/>
 <path d="M2351 8317 c-6 -8 -46 -22 -88 -32 -43 -10 -83 -24 -88 -31 -6 -6 -44 -20 -85 -29 -41 -10 -82 -24 -90 -31 -8 -6 -34 -17 -57 -23 -26 -7 -43 -18 -43 -26 0 -8 3 -15 8 -15 15 0 97 32 110 42 7 6 29 14 50 19 20 4 51 11 67 15 17 4 37 13 45 20 8 7 33 17 55 23 22 5 56 14 75 19 45 11 80 33 80 49 0 17 -25 17 -39 0z"/>
 <path d="M1840 8135 c-7 -8 -21 -15 -31 -15 -11 0 -19 -7 -19 -15 0 -8 7 -15 16 -15 23 0 74 32 74 47 0 18 -25 16 -40 -2z"/>
 <path d="M1743 8103 c-7 -2 -13 -11 -13 -20 0 -20 34 -12 38 10 3 17 -3 20 -25 10z"/>
 <path d="M1660 8075 c-7 -8 -19 -15 -26 -15 -8 0 -14 -7 -14 -15 0 -8 4 -15 10 -15 20 0 80 36 80 48 0 17 -35 15 -50 -3z"/>
 <path d="M1573 8043 c-7 -2 -13 -12 -13 -20 0 -10 6 -13 16 -9 9 3 18 6 20 6 2 0 4 7 4 15 0 15 -6 17 -27 8z"/>
 <path d="M1500 8015 c-7 -8 -19 -15 -26 -15 -8 0 -14 -7 -14 -15 0 -8 6 -15 13 -15 20 0 57 30 57 46 0 18 -14 18 -30 -1z"/>
 <path d="M1413 7983 c-7 -2 -13 -12 -13 -20 0 -10 6 -13 16 -9 9 3 18 6 20 6 2 0 4 7 4 15 0 15 -6 17 -27 8z"/>
 <path d="M1340 7957 c-8 -8 -44 -22 -80 -32 -70 -20 -109 -43 -110 -62 0 -17 11 -16 39 3 21 15 52 25 121 41 30 7 60 31 60 50 0 17 -12 17 -30 0z"/>
 <path d="M1103 7863 c-7 -2 -13 -12 -13 -20 0 -10 6 -13 16 -9 9 3 18 6 20 6 2 0 4 7 4 15 0 15 -6 17 -27 8z"/>
 <path d="M1033 7837 c-4 -7 -37 -21 -73 -32 -36 -10 -72 -24 -80 -30 -8 -7 -42 -20 -75 -30 -33 -10 -67 -23 -75 -31 -8 -7 -27 -16 -43 -19 -15 -4 -31 -13 -35 -20 -4 -7 -24 -18 -44 -24 -22 -7 -38 -19 -38 -28 0 -10 5 -13 18 -8 9 4 26 10 37 13 11 2 27 10 35 17 8 7 29 19 45 27 17 8 39 19 50 25 11 6 40 17 65 24 25 7 55 18 67 25 27 17 102 44 123 44 19 1 60 34 60 49 0 15 -27 14 -37 -2z"/>
 <path d="M520 7616 c-8 -7 -40 -22 -70 -31 -30 -10 -62 -23 -70 -30 -8 -7 -40 -20 -70 -31 -30 -10 -62 -24 -71 -31 -9 -8 -39 -21 -66 -31 -51 -18 -83 -42 -83 -61 0 -15 10 -14 30 4 10 9 39 23 66 33 27 10 60 25 74 34 14 9 47 24 75 33 27 9 56 21 63 28 17 14 81 37 103 37 18 0 49 31 49 48 0 16 -12 15 -30 -2z"/>
 <path d="M45 7400 c-3 -5 -15 -10 -26 -10 -10 0 -19 -7 -19 -15 0 -18 9 -19 44 -5 14 5 26 16 26 25 0 17 -16 20 -25 5z"/>
 </g>

</svg>